<svg width="80" height="24" viewBox="0 0 80 24" fill="none" xmlns="http://www.w3.org/2000/svg">
<g clip-path="url(#clip0_1372_13077)">
<path d="M67.9545 0.127322C62.0666 0.127322 57.1663 4.29626 56.1188 9.80474C55.9488 9.5843 55.7678 9.37223 55.5756 9.16813C54.8357 8.38159 53.9645 7.74079 52.9618 7.24709C51.9599 6.75243 50.8776 6.46054 49.716 6.37047L52.8257 0H46.471L41.1071 11.0899C40.9837 11.3337 40.8702 11.5823 40.7672 11.8347C40.5429 11.3602 40.2713 10.9037 39.9519 10.4664C39.0066 9.1744 37.8166 8.2022 36.3809 7.55076L40.0707 0H28.7324L26.5412 5.66298H30.9487L27.7029 12.3704H32.6574C33.0904 12.3704 33.494 12.4489 33.8703 12.6064C34.2466 12.7639 34.5763 12.9768 34.8611 13.247C35.1461 13.5165 35.379 13.8363 35.5616 14.2076C35.7434 14.5787 35.8466 14.9662 35.8694 15.3708C35.8466 15.7754 35.7442 16.1573 35.5616 16.5169C35.3798 16.8764 35.1461 17.1909 34.8611 17.4612C34.5761 17.7306 34.2456 17.9442 33.8703 18.1018C33.494 18.2585 33.0904 18.3378 32.6574 18.3378C31.1998 18.3378 29.9925 17.6748 29.0362 16.3493L28.5923 15.7779L28.3192 16.0458L25.0732 19.0795C25.9619 20.6301 27.0725 21.8376 28.404 22.7026C29.7365 23.5677 31.1548 24.0002 32.658 24.0002C33.7055 24.0002 34.7074 23.8263 35.6646 23.4776C36.6217 23.1289 37.4866 22.6515 38.2612 22.0449C39.0357 21.4386 39.6905 20.7132 40.2256 19.8708C40.4618 19.4989 40.6663 19.1114 40.8426 18.7116C41.2771 19.6612 41.8476 20.5091 42.56 21.2531C43.3234 22.0505 44.2166 22.6912 45.2423 23.1741C46.2672 23.6572 47.3713 23.9327 48.5566 24.0002H49.513C50.6747 23.9327 51.7679 23.6578 52.7926 23.1741C53.8173 22.6911 54.7115 22.0505 55.4749 21.2531C56.2376 20.4557 56.8413 19.5394 57.2859 18.5058C57.3678 18.314 57.4401 18.1191 57.5071 17.9226C59.5858 21.4899 63.4863 23.8923 67.956 23.8923C74.6074 23.8923 79.9996 18.5725 79.9996 12.0103C79.9996 5.44805 74.6061 0.127322 67.9545 0.127322ZM51.9882 16.4152C51.8173 16.7972 51.5899 17.1288 51.3049 17.4091C50.9794 17.7302 50.58 17.9773 50.1065 18.1517C49.8312 18.2532 49.5403 18.3131 49.2471 18.3294C48.7084 18.3594 48.2159 18.2777 47.7686 18.0831C47.3814 17.9146 47.0398 17.6894 46.7439 17.4091C46.448 17.1288 46.2142 16.7972 46.0434 16.4152C45.8802 16.05 45.7954 15.6541 45.7881 15.2271C45.7807 14.7857 45.8676 14.3437 46.0434 13.9381C46.2144 13.5444 46.448 13.2075 46.7439 12.9272C47.0398 12.6461 47.3814 12.4217 47.7686 12.2531C48.2132 12.0597 48.702 11.9778 49.237 12.0063C49.5317 12.022 49.8245 12.0815 50.1015 12.1828C50.5771 12.3569 50.9782 12.6058 51.3047 12.9272C51.5809 13.1997 51.8031 13.5246 51.9721 13.9022C52.1432 14.2844 52.2366 14.7 52.2433 15.1182C52.2508 15.5871 52.1652 16.019 51.9882 16.4152ZM74.4051 14.7156C74.0352 15.5449 73.54 16.264 72.9222 16.8734C72.2005 17.5854 71.31 18.1324 70.251 18.5113C69.6879 18.7129 69.0963 18.8334 68.4988 18.8697C67.3139 18.9417 66.2301 18.7646 65.2483 18.337C64.4077 17.9712 63.6662 17.4836 63.0241 16.8734C62.3811 16.2638 61.8743 15.5449 61.5035 14.7156C61.1336 13.8863 60.9479 12.9848 60.9479 12.0087C60.9479 11.0327 61.1336 10.1916 61.5035 9.3384C61.875 8.48515 62.3811 7.75353 63.0241 7.14333C63.6664 6.53371 64.4077 6.04608 65.2483 5.68046C66.2318 5.25213 67.3178 5.07521 68.5053 5.14818C69.1021 5.18485 69.6929 5.30591 70.2552 5.50772C71.3123 5.88703 72.2013 6.43223 72.922 7.14333C73.5398 7.75277 74.035 8.48439 74.4049 9.3384C74.7764 10.1916 74.9605 11.0816 74.9605 12.0087C74.9605 12.9848 74.7766 13.887 74.4051 14.7156Z" fill="url(#paint0_linear_1372_13077)"/>
<path d="M65.874 9.5267V14.4038C65.8748 14.5267 65.9077 14.6474 65.9696 14.7537C66.0314 14.86 66.12 14.9482 66.2264 15.0096C66.3329 15.0709 66.4535 15.1033 66.5764 15.1035C66.6993 15.1037 66.82 15.0716 66.9267 15.0106L69.0494 13.7894L71.1722 12.5708C71.2791 12.5103 71.368 12.4225 71.4298 12.3163C71.4917 12.2101 71.5243 12.0894 71.5243 11.9665C71.5243 11.8436 71.4917 11.7228 71.4298 11.6167C71.368 11.5105 71.2791 11.4226 71.1722 11.3622L69.0494 10.141L66.9267 8.92237C66.8203 8.86062 66.6996 8.82795 66.5767 8.82764C66.4538 8.82733 66.3329 8.8594 66.2263 8.92063C66.1196 8.98185 66.0309 9.07008 65.9691 9.17646C65.9073 9.28284 65.8745 9.40363 65.874 9.5267" fill="white"/>
<path d="M23.6755 0C23.0868 0 22.5612 0.366763 22.362 0.916908L19.3631 9.1974C19.2797 9.37432 19.1966 9.46268 19.1135 9.46268C19.0067 9.46268 18.9235 9.37413 18.8643 9.1974L15.8542 0.886313C15.6616 0.354601 15.1537 0 14.5847 0H0V0.343769C0 1.52159 0.961543 2.47632 2.14778 2.47632H4.63144V12.381H7.8378V2.47632H13.1202L16.5307 10.8602C16.9818 11.9685 17.8427 12.5226 19.1135 12.5226C19.8498 12.5226 20.4079 12.3753 20.788 12.0804C21.1679 11.7858 21.4649 11.379 21.6785 10.8602L26.1142 0H23.6753H23.6755Z" fill="white"/>
</g>
<defs>
<linearGradient id="paint0_linear_1372_13077" x1="52.5365" y1="-1.25536" x2="52.5365" y2="24.4308" gradientUnits="userSpaceOnUse">
<stop stop-color="#ED2D24"/>
<stop offset="0.51" stop-color="#E92231"/>
<stop offset="1" stop-color="#B92032"/>
</linearGradient>
<clipPath id="clip0_1372_13077">
<rect width="80" height="24" fill="white"/>
</clipPath>
</defs>
</svg>
