<?xml version="1.0" standalone="no"?>
<!DOCTYPE svg PUBLIC "-//W3C//DTD SVG 20010904//EN"
 "http://www.w3.org/TR/2001/REC-SVG-20010904/DTD/svg10.dtd">
<svg version="1.0" xmlns="http://www.w3.org/2000/svg"
 width="98.000000pt" height="155.000000pt" viewBox="0 0 98.000000 155.000000"
 preserveAspectRatio="xMidYMid meet">

<g transform="translate(0.000000,155.000000) scale(0.100000,-0.100000)"
fill="#000000" stroke="none">
<path d="M579 1519 c-11 -21 -8 -65 6 -101 5 -13 -1 -18 -32 -23 -21 -3 -90
-18 -153 -32 -63 -14 -153 -33 -199 -42 l-84 -16 -14 -39 c-24 -71 -27 -142
-9 -188 23 -58 95 -106 182 -120 75 -13 79 -22 45 -91 -15 -29 -27 -74 -29
-107 -4 -49 0 -65 23 -104 29 -49 56 -161 56 -235 0 -24 5 -54 9 -67 8 -20 5
-24 -26 -34 -54 -18 -66 -76 -25 -124 14 -17 26 -18 113 -12 90 6 97 5 103
-14 8 -25 75 -44 129 -37 27 4 50 16 73 39 29 29 36 45 44 104 5 38 10 87 11
109 1 76 35 214 61 253 40 58 44 101 14 166 -14 31 -38 67 -52 80 l-26 25 9
113 c11 133 2 212 -33 281 -22 43 -23 52 -13 96 13 60 4 117 -22 131 -37 20
-71 -17 -83 -90 -3 -18 -5 -14 -6 12 -2 76 -45 116 -72 67z m42 -9 c2 23 16
-40 18 -78 1 -27 -2 -33 -16 -30 -11 2 -18 12 -17 26 0 12 -3 22 -8 22 -10 0
-11 31 -2 55 5 13 8 14 15 3 7 -10 9 -10 10 2z m120 -7 c-11 -4 -11 -7 0 -14
7 -4 10 -11 6 -15 -3 -4 -14 -1 -24 7 -13 11 -15 11 -9 1 5 -8 1 -19 -10 -28
-11 -9 -13 -12 -5 -8 11 6 13 3 7 -12 -9 -22 -9 -22 -7 -51 2 -39 18 -25 25
22 4 24 11 47 16 50 12 8 1 -64 -16 -99 -17 -36 -18 -34 6 -38 12 -2 21 -7 21
-13 0 -5 6 -17 13 -25 7 -8 16 -28 20 -45 5 -22 4 -26 -4 -15 -5 8 -10 10 -10
5 0 -6 5 -16 12 -23 21 -21 12 -257 -10 -257 -6 0 -14 -4 -19 -9 -5 -5 -3 -6
5 -2 6 4 12 3 12 -2 0 -15 -72 -33 -86 -21 -8 7 -13 6 -16 -3 -7 -20 -191 -24
-254 -5 -27 8 -49 18 -49 23 0 5 -5 16 -10 25 -9 15 -24 20 -103 33 -35 6 -38
14 -13 39 33 36 42 82 39 191 l-3 99 84 19 c47 10 87 16 89 13 3 -3 0 -5 -6
-5 -7 0 -12 -7 -12 -15 0 -8 5 -15 10 -15 6 0 10 -7 10 -15 0 -9 -6 -15 -12
-14 -28 3 -33 -2 -32 -32 1 -47 26 -69 78 -69 25 0 48 5 52 11 4 8 9 8 17 0
17 -17 117 -14 117 3 0 8 4 16 9 18 5 2 11 19 12 38 3 25 0 34 -10 32 -22 -5
-43 7 -35 19 4 8 9 7 15 -2 6 -10 9 -6 9 13 0 14 6 29 13 32 6 3 0 3 -15 1
-15 -2 -40 0 -55 4 -34 9 -70 -5 -76 -30 -4 -15 -2 -17 13 -9 15 8 17 6 13 -9
-7 -26 -38 -19 -38 8 0 14 -11 29 -25 38 -14 8 -18 12 -9 9 9 -2 21 0 27 6 8
8 16 7 27 -2 13 -11 15 -10 9 3 -4 11 0 15 13 13 10 -2 26 1 36 6 13 6 19 5
24 -7 5 -13 7 -14 14 -3 6 8 9 9 9 1 0 -6 8 -9 19 -6 15 4 18 13 15 51 -3 56
16 92 49 91 13 0 16 -3 8 -6z m-301 -646 c73 -25 207 -19 297 14 72 26 76 24
117 -51 38 -70 38 -116 -2 -176 -31 -48 -44 -54 -20 -11 10 20 10 21 -5 8 -20
-16 -21 -9 -6 22 10 21 10 21 -5 3 -9 -11 -16 -25 -16 -30 0 -6 -5 -4 -10 4
-5 8 -10 20 -10 25 0 6 4 5 8 -2 5 -8 11 -3 19 13 11 23 10 24 -4 12 -14 -11
-15 -10 -9 12 6 19 5 21 -3 10 -15 -20 -15 4 0 33 9 20 9 21 -4 4 -11 -14 -16
-15 -21 -5 -5 12 -3 -1 11 -52 2 -8 -5 4 -16 27 -14 31 -24 41 -36 37 -19 -8
-19 -17 1 -55 8 -17 13 -33 10 -37 -3 -3 -6 -1 -6 4 0 14 -41 77 -46 71 -3 -3
2 -19 11 -36 9 -18 13 -37 9 -43 -4 -7 -3 -8 5 -4 17 11 25 -22 10 -42 -12
-15 -12 -16 2 -5 9 7 19 10 22 6 4 -3 7 0 7 8 0 11 2 11 10 -1 5 -8 10 -19 10
-25 0 -5 -5 -3 -10 5 -7 11 -10 11 -10 2 0 -7 -4 -11 -9 -7 -5 3 -13 1 -16 -5
-4 -6 -3 -10 2 -9 22 4 34 -2 27 -13 -5 -8 0 -7 11 2 17 14 18 14 6 -9 -10
-19 -10 -22 0 -16 9 6 10 -2 5 -36 -4 -24 -10 -63 -13 -86 l-6 -43 -51 1 c-28
0 -71 6 -95 12 -43 12 -45 13 -57 67 -20 84 -19 86 29 96 l42 8 -35 4 c-54 6
-61 22 -9 24 l44 1 -50 7 -50 7 45 2 c118 6 95 37 -35 47 -175 13 -199 32
-191 144 3 43 2 57 -3 40 -5 -14 -9 -37 -10 -52 -1 -16 -6 -28 -12 -28 -8 0
-8 -4 -2 -12 15 -19 25 -67 17 -80 -11 -18 -33 33 -34 77 0 22 11 64 25 94 20
43 28 52 43 46 9 -5 42 -17 72 -28z m87 7 c-3 -3 -12 -4 -19 -1 -8 3 -5 6 6 6
11 1 17 -2 13 -5z m63 -4 c0 -5 -7 -10 -15 -10 -8 0 -15 5 -15 10 0 6 7 10 15
10 8 0 15 -4 15 -10z m179 -205 c0 -5 -6 1 -14 15 -8 14 -14 30 -14 35 0 6 6
-1 14 -15 8 -14 14 -29 14 -35z m-374 -15 c22 -11 34 -20 27 -20 -9 0 -9 -4 0
-20 7 -11 19 -18 26 -15 7 3 10 0 7 -5 -3 -5 7 -12 22 -16 42 -10 50 -20 46
-56 -4 -26 -2 -30 7 -18 9 12 10 8 5 -19 -5 -25 -4 -32 5 -26 9 5 10 1 5 -14
-4 -12 -2 -27 3 -34 6 -7 13 -30 18 -51 7 -38 6 -39 -17 -32 -13 4 -51 10 -84
13 -68 6 -70 7 -79 47 -6 23 -4 27 9 23 8 -4 46 -9 83 -11 l67 -5 -72 12 c-40
7 -75 15 -77 18 -5 4 -46 222 -46 241 0 11 0 11 45 -12z m395 -35 c0 -5 -5 -3
-10 5 -5 8 -10 20 -10 25 0 6 5 3 10 -5 5 -8 10 -19 10 -25z m11 -110 l-9 -40
-1 37 c-1 41 11 84 17 58 1 -9 -2 -33 -7 -55z m-14 -77 c-3 -7 -5 -2 -5 12 0
14 2 19 5 13 2 -7 2 -19 0 -25z m-56 -51 l58 9 -2 -27 c-1 -21 -9 -30 -27 -34
-24 -6 -170 -8 -175 -3 -2 2 -6 20 -10 40 l-7 36 52 -15 c41 -12 66 -13 111
-6z m-300 -84 l32 -28 -7 30 c-4 17 -4 26 0 22 4 -4 9 -28 9 -52 l2 -45 -58 0
c-78 0 -89 6 -89 46 0 58 57 72 111 27z m239 -49 c19 -16 29 -33 25 -41 -4
-12 0 -14 20 -9 33 8 32 -7 0 -22 -31 -14 -104 -16 -139 -2 -34 12 -44 54 -21
80 26 29 77 26 115 -6z"/>
<path d="M773 1121 c0 -11 5 -18 9 -15 4 3 5 11 1 19 -7 21 -12 19 -10 -4z"/>
<path d="M673 1081 c-3 -12 -11 -17 -20 -14 -13 5 -13 3 -2 -15 7 -11 17 -18
21 -16 4 3 13 -7 20 -23 11 -27 12 -27 15 -5 5 25 23 31 23 7 0 -8 5 -15 10
-15 13 0 1 82 -14 92 -21 14 -48 8 -53 -11z"/>
<path d="M608 1028 c-8 -12 -25 -20 -41 -20 -15 0 -30 -4 -33 -9 -3 -5 -21 -9
-41 -9 -28 0 -33 -3 -24 -13 6 -8 7 -17 3 -21 -4 -4 -2 -6 5 -4 6 2 18 -4 25
-13 16 -20 65 -33 73 -19 3 5 11 10 16 10 6 0 7 -4 4 -10 -4 -6 1 -7 11 -3 14
5 15 7 1 15 -17 9 -12 38 5 38 7 0 7 -4 0 -13 -8 -10 -6 -13 9 -13 10 0 19 6
19 12 0 7 8 20 17 30 10 9 18 23 19 31 2 8 0 12 -3 9 -4 -3 -16 1 -29 9 -20
13 -23 12 -36 -7z"/>
<path d="M697 935 c-4 -8 -3 -16 1 -19 4 -3 9 4 9 15 2 23 -3 25 -10 4z"/>
<path d="M638 913 c7 -3 16 -2 19 1 4 3 -2 6 -13 5 -11 0 -14 -3 -6 -6z"/>
<path d="M765 770 c3 -5 8 -10 11 -10 2 0 4 5 4 10 0 6 -5 10 -11 10 -5 0 -7
-4 -4 -10z"/>
<path d="M638 733 c7 -3 16 -2 19 1 4 3 -2 6 -13 5 -11 0 -14 -3 -6 -6z"/>
<path d="M610 444 c0 -1 8 -8 17 -15 14 -12 16 -12 8 0 -6 11 -4 13 9 8 9 -4
15 -3 11 2 -4 8 -45 12 -45 5z"/>
<path d="M424 471 c10 -11 24 -17 32 -14 20 7 18 10 -18 22 -30 11 -31 11 -14
-8z"/>
<path d="M658 173 c7 -3 16 -2 19 1 4 3 -2 6 -13 5 -11 0 -14 -3 -6 -6z"/>
</g>
</svg>
